<svg width="103" height="120" viewBox="0 0 103 120" fill="none" xmlns="http://www.w3.org/2000/svg">
<path d="M29.1917 120C29.0779 120 28.9641 119.988 28.8527 119.965C28.7438 119.943 28.635 119.911 28.5286 119.866C28.4247 119.824 28.3232 119.77 28.2317 119.708C28.1352 119.644 28.0461 119.572 27.9669 119.493C27.6453 119.171 27.4597 118.723 27.4597 118.268C27.4597 118.154 27.4721 118.04 27.4944 117.929C27.5166 117.82 27.5488 117.711 27.5933 117.605C27.6354 117.501 27.6898 117.4 27.7517 117.306C27.816 117.212 27.8878 117.123 27.9669 117.043C28.0461 116.964 28.1352 116.89 28.2292 116.828C28.3232 116.766 28.4247 116.712 28.5286 116.67C28.6325 116.625 28.7438 116.593 28.8527 116.571C29.0754 116.526 29.308 116.526 29.5307 116.571C29.642 116.593 29.7509 116.625 29.8548 116.67C29.9587 116.712 30.0601 116.766 30.1542 116.828C30.2482 116.89 30.3373 116.964 30.4164 117.043C30.4956 117.123 30.5698 117.212 30.6317 117.306C30.6935 117.4 30.748 117.501 30.79 117.605C30.8346 117.711 30.8667 117.82 30.889 117.929C30.9113 118.04 30.9237 118.154 30.9237 118.268C30.9237 118.723 30.7381 119.171 30.4164 119.493C30.3373 119.572 30.2482 119.644 30.1542 119.708C30.0601 119.77 29.9587 119.824 29.8548 119.866C29.7509 119.911 29.642 119.943 29.5307 119.965C29.4193 119.988 29.3055 120 29.1917 120Z" fill="black"/>
<path d="M100.358 44.85H94.8728C93.9153 44.85 93.1408 44.0756 93.1408 43.1181C93.1408 42.1605 93.9153 41.3861 94.8728 41.3861H100.358C101.316 41.3861 102.09 42.1605 102.09 43.1181C102.09 44.0756 101.316 44.85 100.358 44.85Z" fill="#BB0722"/>
<path d="M100.358 57.5306H94.8728C93.9153 57.5306 93.1408 56.7561 93.1408 55.7986C93.1408 54.8411 93.9153 54.0667 94.8728 54.0667H100.358C101.316 54.0667 102.09 54.8411 102.09 55.7986C102.09 56.7561 101.316 57.5306 100.358 57.5306Z" fill="#BB0722"/>
<path d="M100.358 70.2109H94.8728C93.9153 70.2109 93.1408 69.4364 93.1408 68.4789C93.1408 67.5214 93.9153 66.7469 94.8728 66.7469H100.358C101.316 66.7469 102.09 67.5214 102.09 68.4789C102.09 69.4364 101.316 70.2109 100.358 70.2109Z" fill="#BB0722"/>
<path d="M100.358 82.889H94.8728C93.9153 82.889 93.1408 82.1145 93.1408 81.157C93.1408 80.1995 93.9153 79.425 94.8728 79.425H100.358C101.316 79.425 102.09 80.1995 102.09 81.157C102.09 82.1145 101.316 82.889 100.358 82.889Z" fill="#BB0722"/>
<path d="M100.358 95.5694H94.8728C93.9153 95.5694 93.1408 94.795 93.1408 93.8374C93.1408 92.8799 93.9153 92.1055 94.8728 92.1055H100.358C101.316 92.1055 102.09 92.8799 102.09 93.8374C102.09 94.795 101.316 95.5694 100.358 95.5694Z" fill="#BB0722"/>
<path d="M100.358 108.25H94.8728C93.9153 108.25 93.1408 107.476 93.1408 106.518C93.1408 105.56 93.9153 104.786 94.8728 104.786H100.358C101.316 104.786 102.09 105.56 102.09 106.518C102.09 107.476 101.316 108.25 100.358 108.25Z" fill="#BB0722"/>
<path d="M81.497 101.139C80.5395 101.139 79.7651 100.364 79.7651 99.4069V72.1235L54.2161 97.6749H72.6863C73.6438 97.6749 74.4182 98.4493 74.4182 99.4069C74.4182 100.364 73.6438 101.139 72.6863 101.139H50.0346C49.3344 101.139 48.7035 100.716 48.4338 100.07C48.1666 99.4217 48.315 98.677 48.8099 98.1821L80.2723 66.7197C80.7671 66.2249 81.5119 66.0764 82.1601 66.3436C82.8084 66.6109 83.229 67.2443 83.229 67.9445V99.4069C83.229 100.362 82.4546 101.139 81.497 101.139Z" fill="#BB0722"/>
<path d="M100.358 120H34.8453C33.8878 120 33.1134 119.226 33.1134 118.268C33.1134 117.31 33.8878 116.536 34.8453 116.536H98.6262V26.5876L8.68025 116.536H23.2535C24.211 116.536 24.9855 117.31 24.9855 118.268C24.9855 119.226 24.211 120 23.2535 120H4.49879C3.79858 120 3.16765 119.577 2.89796 118.931C2.63074 118.283 2.7792 117.538 3.27404 117.043L99.1334 21.1838C99.6283 20.689 100.373 20.5405 101.021 20.8077C101.67 21.075 102.09 21.7084 102.09 22.4086V118.268C102.09 119.226 101.316 120 100.358 120Z" fill="black"/>
<path d="M82.227 23.7818C81.8583 23.7818 81.4872 23.6655 81.1754 23.4255C80.5222 22.9257 80.3144 22.0399 80.6608 21.3075C80.8736 20.7929 81.3214 20.4094 81.8657 20.2832C82.4497 20.1471 83.0633 20.3203 83.4864 20.7459L83.5086 20.7682C84.1841 21.4436 84.1841 22.5422 83.5086 23.2176L83.4517 23.2746C83.1152 23.6111 82.6723 23.7818 82.227 23.7818Z" fill="black"/>
<path d="M12.7306 91.0167C10.8897 91.0167 9.05139 90.3165 7.65097 88.9161L2.25218 83.5173C-0.548659 80.7165 -0.548659 76.159 2.25218 73.3581L7.0621 68.5482C7.73756 67.8727 8.83613 67.8727 9.51159 68.5482C10.1871 69.2237 10.1871 70.3222 9.51159 70.9977L4.70167 75.8076C3.25177 77.2575 3.25177 79.6179 4.70167 81.0678L10.1005 86.4666C11.5504 87.9165 13.9108 87.9165 15.3607 86.4666L76.8777 24.9497C75.9721 24.6379 75.1259 24.1208 74.4109 23.4082C73.1539 22.1513 72.4686 20.4144 72.5304 18.6379C70.7564 18.6997 69.0195 18.0144 67.7601 16.7575C67.0451 16.0424 66.5279 15.1962 66.2162 14.2906L14.3759 66.1333C13.7005 66.8088 12.6019 66.8088 11.9265 66.1333C11.251 65.4579 11.251 64.3593 11.9265 63.6838L67.0648 8.54546C67.6859 7.92442 68.6706 7.86752 69.3585 8.40937C70.0488 8.95123 70.2244 9.92361 69.7667 10.6708C69.0541 11.8411 69.2372 13.3381 70.2096 14.3104C70.8034 14.9042 71.5927 15.216 72.4315 15.1789C73.3816 15.1393 74.3119 15.503 74.9874 16.1785C75.6653 16.8539 76.0315 17.7867 75.9919 18.7393C75.9573 19.5806 76.2641 20.3674 76.8604 20.9637C77.8303 21.9336 79.3247 22.1166 80.495 21.409C81.2447 20.9562 82.2146 21.1344 82.754 21.8222C83.2934 22.5125 83.234 23.4948 82.6154 24.1158L17.8102 88.9161C16.4098 90.3165 14.5714 91.0167 12.7306 91.0167Z" fill="black"/>
<path d="M14.8411 78.0591C14.3982 78.0591 13.9553 77.8909 13.6163 77.5519C12.9409 76.8764 12.9409 75.7779 13.6163 75.1024L62.9032 25.8156C63.5786 25.1401 64.6772 25.1401 65.3527 25.8156C66.0281 26.491 66.0281 27.5896 65.3527 28.2651L16.0658 77.5519C15.7293 77.8884 15.2865 78.0591 14.8411 78.0591Z" fill="black"/>
<path d="M68.25 24.6503C68.1387 24.6503 68.0248 24.638 67.9135 24.6157C67.8022 24.5934 67.6933 24.5612 67.5894 24.5167C67.483 24.4747 67.384 24.4202 67.29 24.3584C67.1935 24.294 67.1069 24.2223 67.0253 24.1431C66.7036 23.819 66.518 23.3736 66.518 22.9184C66.518 22.8045 66.5304 22.6907 66.5527 22.5794C66.5749 22.468 66.6096 22.3592 66.6516 22.2553C66.6937 22.1513 66.7481 22.0499 66.81 21.9559C66.8743 21.8619 66.9461 21.7728 67.0253 21.6936C67.1069 21.6144 67.1935 21.5402 67.29 21.4783C67.384 21.4165 67.483 21.3621 67.5894 21.32C67.6933 21.2755 67.8022 21.2433 67.9135 21.221C68.4752 21.1072 69.0739 21.2903 69.4747 21.6936C69.5564 21.7728 69.6281 21.8619 69.69 21.9559C69.7543 22.0499 69.8063 22.1513 69.8508 22.2553C69.8929 22.3592 69.9275 22.468 69.9498 22.5794C69.9721 22.6907 69.982 22.8045 69.982 22.9184C69.982 23.3736 69.7989 23.819 69.4747 24.1431C69.1531 24.4648 68.7077 24.6503 68.25 24.6503Z" fill="black"/>
<path d="M12.7306 91.1677C10.9838 91.1677 9.23695 90.5021 7.90581 89.1735L1.99485 83.2625C-0.664951 80.6027 -0.664951 76.2753 1.99485 73.6155L7.06209 68.5482C7.73756 67.8728 8.83612 67.8728 9.51159 68.5482L22.6201 81.6567C23.2956 82.3322 23.2956 83.4308 22.6201 84.1062L17.5529 89.1735C16.2242 90.5021 14.4774 91.1677 12.7306 91.1677ZM10.3553 86.7215C11.6642 88.0304 13.7945 88.0304 15.1034 86.7215L18.9459 82.879L8.28684 72.22L4.44435 76.0625C3.13548 77.3714 3.13548 79.5017 4.44435 80.8105L10.3553 86.7215Z" fill="#BB0722"/>
<path d="M78.956 25.2961C77.2933 25.2961 75.6529 24.6503 74.4109 23.4082C73.1539 22.1513 72.4686 20.4144 72.5304 18.6379C70.7539 18.6973 69.0195 18.0144 67.7601 16.7575C65.6545 14.6519 65.2636 11.4082 66.8075 8.86712C66.8966 8.72114 66.9881 8.58753 67.0822 8.45393C67.4063 8.00114 67.8393 7.63743 68.3391 7.39C68.4084 7.35536 68.4801 7.3232 68.5519 7.29598C68.7473 7.21433 68.9502 7.15 69.163 7.10794L88.853 0.100899C89.4814 -0.124256 90.1866 0.034095 90.6592 0.509149C91.1318 0.984202 91.2901 1.68441 91.0674 2.31534L84.0554 22.0127C84.0134 22.2156 83.9515 22.4136 83.8748 22.6016C83.8427 22.6857 83.808 22.7674 83.7659 22.8441C83.5235 23.3315 83.1672 23.7571 82.7342 24.0738C82.5907 24.1752 82.4546 24.2668 82.3037 24.3608C81.2595 24.9893 80.1041 25.2961 78.956 25.2961ZM72.5725 15.174C73.4706 15.174 74.3465 15.5352 74.9874 16.176C75.6653 16.8515 76.0315 17.7843 75.9919 18.7369C75.9573 19.5781 76.2641 20.3649 76.8604 20.9612C77.8303 21.9311 79.3247 22.1142 80.495 21.4066C80.5445 21.3744 80.6063 21.3348 80.6707 21.2927C80.688 21.1864 80.7127 21.08 80.7499 20.9785L86.5841 4.58917L70.1923 10.4234C70.0908 10.4605 69.9869 10.4853 69.8805 10.5026C69.8409 10.5595 69.8014 10.6189 69.7642 10.6807C69.0566 11.8436 69.2372 13.3405 70.2096 14.3129C70.8034 14.9067 71.5952 15.216 72.4315 15.1814C72.4785 15.174 72.5255 15.174 72.5725 15.174Z" fill="#BB0722"/>
<path d="M85.8394 13.5707C85.3965 13.5707 84.9536 13.4024 84.6146 13.0635L78.1049 6.55375C77.4294 5.87829 77.4294 4.77972 78.1049 4.10426C78.7804 3.42879 79.8789 3.42879 80.5544 4.10426L87.0641 10.614C87.7396 11.2894 87.7396 12.388 87.0641 13.0635C86.7251 13.4024 86.2823 13.5707 85.8394 13.5707Z" fill="#BB0722"/>
</svg>
