<svg width="121" height="120" viewBox="0 0 121 120" fill="none" xmlns="http://www.w3.org/2000/svg">
<path d="M42.569 28.9128H33.2559C32.2958 28.9128 31.5193 28.1363 31.5193 27.1762V10.8373C31.5193 9.87722 32.2958 9.10071 33.2559 9.10071H42.569C43.5291 9.10071 44.3056 9.87722 44.3056 10.8373V27.1787C44.3056 28.1363 43.5291 28.9128 42.569 28.9128ZM34.9925 25.4396H40.8324V12.5739H34.9925V25.4396Z" fill="#BB0722"/>
<path d="M42.569 120H33.2559C32.2958 120 31.5193 119.224 31.5193 118.263V50.1093C31.5193 49.1492 32.2958 48.3727 33.2559 48.3727H42.569C43.5291 48.3727 44.3056 49.1492 44.3056 50.1093C44.3056 51.0694 43.5291 51.8459 42.569 51.8459H34.9925V116.529H40.8324V60.0724C40.8324 59.1123 41.609 58.3358 42.569 58.3358C43.5291 58.3358 44.3056 59.1123 44.3056 60.0724V118.263C44.3056 119.224 43.5291 120 42.569 120Z" fill="#BB0722"/>
<path d="M22.3823 51.8434H1.7366C0.776509 51.8434 0 51.0669 0 50.1068V27.1787C0 26.2186 0.776509 25.4421 1.7366 25.4421H22.3823C23.3424 25.4421 24.1189 26.2186 24.1189 27.1787V50.1093C24.1189 51.0669 23.3424 51.8434 22.3823 51.8434ZM3.4732 48.3702H20.6457V28.9153H3.4732V48.3702Z" fill="#BB0722"/>
<path d="M30.1325 44.1378H22.3823C21.4222 44.1378 20.6457 43.3613 20.6457 42.4012V34.9264C20.6457 33.9663 21.4222 33.1898 22.3823 33.1898H30.1325C31.0926 33.1898 31.8691 33.9663 31.8691 34.9264V42.4012C31.8691 43.3589 31.0926 44.1378 30.1325 44.1378ZM24.1189 40.6646H28.3959V36.663H24.1189V40.6646Z" fill="#BB0722"/>
<path d="M85.8923 44.1378H45.6924C44.7323 44.1378 43.9558 43.3613 43.9558 42.4012V34.9264C43.9558 33.9663 44.7323 33.1898 45.6924 33.1898H80.3401C81.3002 33.1898 82.0767 33.9663 82.0767 34.9264C82.0767 35.8865 81.3002 36.663 80.3401 36.663H47.429V40.6646H84.1557V34.9264C84.1557 33.9663 84.9322 33.1898 85.8923 33.1898C86.8524 33.1898 87.6289 33.9663 87.6289 34.9264V42.4012C87.6289 43.3589 86.8524 44.1378 85.8923 44.1378Z" fill="#BB0722"/>
<path d="M107.766 44.1378H96.7113C95.7512 44.1378 94.9747 43.3613 94.9747 42.4012V34.9264C94.9747 33.9663 95.7512 33.1898 96.7113 33.1898H107.766C108.726 33.1898 109.503 33.9663 109.503 34.9264V42.4012C109.503 43.3589 108.726 44.1378 107.766 44.1378ZM98.4479 40.6646H106.029V36.663H98.4479V40.6646Z" fill="#BB0722"/>
<path d="M96.7113 55.009H85.8923C84.9322 55.009 84.1557 54.2325 84.1557 53.2724V32.329C84.1557 31.3689 84.9322 30.5924 85.8923 30.5924H96.7113C97.6714 30.5924 98.4479 31.3689 98.4479 32.329V53.2724C98.4479 54.2325 97.6714 55.009 96.7113 55.009ZM87.6289 51.5358H94.9747V34.0656H87.6289V51.5358Z" fill="#BB0722"/>
<path d="M111.894 34.0656C111.45 34.0656 111.006 33.8969 110.666 33.557L85.1306 8.02154H48.7861C47.826 8.02154 47.0495 7.24503 47.0495 6.28494C47.0495 5.32485 47.826 4.54834 48.7861 4.54834H85.8501C86.3115 4.54834 86.7531 4.73192 87.0781 5.05692L113.122 31.101C113.799 31.7782 113.799 32.8797 113.122 33.557C112.782 33.8969 112.338 34.0656 111.894 34.0656Z" fill="#BB0722"/>
<path d="M12.057 28.9153C11.7072 28.9153 11.3524 28.8086 11.0473 28.5903C10.2683 28.0321 10.0897 26.9455 10.6478 26.1665L25.6273 5.27519C26.1855 4.4962 27.2721 4.31758 28.0511 4.87577C28.8301 5.43397 29.0087 6.52058 28.4505 7.29957L13.4711 28.1884C13.1312 28.6622 12.5978 28.9153 12.057 28.9153Z" fill="#BB0722"/>
<path d="M118.585 100.533H64.0185C63.0584 100.533 62.2819 99.7562 62.2819 98.7961V89.5896C62.2819 88.6295 63.0584 87.853 64.0185 87.853H118.585C119.545 87.853 120.322 88.6295 120.322 89.5896V98.7961C120.322 99.7537 119.545 100.533 118.585 100.533ZM65.7551 97.0595H116.848V91.3262H65.7551V97.0595Z" fill="#BB0722"/>
<path d="M91.303 91.3263C90.3429 91.3263 89.5664 90.5497 89.5664 89.5897V73.9826C89.5664 73.0225 90.3429 72.246 91.303 72.246C92.2631 72.246 93.0396 73.0225 93.0396 73.9826V89.5897C93.0396 90.5473 92.2631 91.3263 91.303 91.3263Z" fill="#BB0722"/>
<path d="M91.303 61.809C90.3429 61.809 89.5664 61.0325 89.5664 60.0724V53.2724C89.5664 52.3123 90.3429 51.5358 91.303 51.5358C92.2631 51.5358 93.0396 52.3123 93.0396 53.2724V60.0724C93.0396 61.0325 92.2631 61.809 91.303 61.809Z" fill="#BB0722"/>
<path d="M77.8816 91.3262C77.5764 91.3262 77.2663 91.2468 76.986 91.0781C76.1648 90.582 75.8994 89.5152 76.3955 88.694L85.798 73.087C86.2942 72.2658 87.3609 72.0003 88.1821 72.4965C89.0033 72.9927 89.2687 74.0595 88.7725 74.8806L79.3701 90.4877C79.0451 91.0261 78.472 91.3262 77.8816 91.3262Z" fill="#BB0722"/>
<path d="M104.724 91.3262C104.137 91.3262 103.561 91.026 103.236 90.4851L93.831 74.8781C93.3348 74.0569 93.6003 72.9901 94.4215 72.494C95.2426 71.9978 96.3094 72.2632 96.8056 73.0844L106.21 88.6915C106.707 89.5126 106.441 90.5794 105.62 91.0756C105.337 91.2443 105.03 91.3262 104.724 91.3262Z" fill="#BB0722"/>
<path d="M48.7861 12.5738H27.0389C26.0788 12.5738 25.3023 11.7973 25.3023 10.8372V1.73746C25.3023 0.777363 26.0788 0.000854492 27.0389 0.000854492H31.9783C32.9384 0.000854492 33.7149 0.777363 33.7149 1.73746C33.7149 2.69755 32.9384 3.47406 31.9783 3.47406H28.7755V9.10064H47.0495V3.47406H41.47C40.5099 3.47406 39.7334 2.69755 39.7334 1.73746C39.7334 0.777363 40.5099 0.000854492 41.47 0.000854492H48.7861C49.7462 0.000854492 50.5227 0.777363 50.5227 1.73746V10.8372C50.5227 11.7949 49.7462 12.5738 48.7861 12.5738Z" fill="black"/>
<path d="M36.6993 3.47409C36.2404 3.47409 35.7938 3.28803 35.4713 2.96552C35.3894 2.88365 35.3175 2.79434 35.2555 2.70006C35.191 2.60579 35.1389 2.50408 35.0942 2.39988C35.052 2.29568 35.0173 2.18653 34.995 2.07489C34.9727 1.96325 34.9603 1.84913 34.9603 1.73501C34.9603 1.27853 35.1463 0.831978 35.4713 0.506986C35.8732 0.105087 36.4736 -0.0809775 37.0367 0.033142C37.1484 0.0554697 37.2575 0.0902019 37.3617 0.132376C37.4684 0.177032 37.5676 0.22913 37.6619 0.291151C37.7587 0.355654 37.8455 0.427599 37.9249 0.506986C38.2499 0.831978 38.4359 1.27853 38.4359 1.73501C38.4359 1.84913 38.4235 1.96325 38.4012 2.07489C38.3789 2.18653 38.3466 2.29568 38.302 2.39988C38.2573 2.50408 38.2052 2.60579 38.1432 2.70006C38.0787 2.79434 38.0067 2.88365 37.9249 2.96552C37.8455 3.0449 37.7587 3.11685 37.6619 3.17887C37.5676 3.24337 37.4684 3.29547 37.3617 3.34013C37.2575 3.3823 37.1484 3.41703 37.0367 3.43936C36.9251 3.46169 36.811 3.47409 36.6993 3.47409Z" fill="black"/>
<path d="M45.6924 51.8459H30.1325C29.1724 51.8459 28.3959 51.0694 28.3959 50.1093V27.1787C28.3959 26.2186 29.1724 25.4421 30.1325 25.4421H45.6924C46.6525 25.4421 47.429 26.2186 47.429 27.1787V50.1093C47.429 51.0669 46.6525 51.8459 45.6924 51.8459ZM31.8691 48.3727H43.9558V28.9153H31.8691V48.3727Z" fill="black"/>
<path d="M118.585 46.7353H107.766C106.806 46.7353 106.029 45.9588 106.029 44.9987V32.3314C106.029 31.3714 106.806 30.5948 107.766 30.5948H118.585C119.545 30.5948 120.322 31.3714 120.322 32.3314V44.9987C120.322 45.9563 119.545 46.7353 118.585 46.7353ZM109.503 43.2621H116.848V34.0681H109.503V43.2621Z" fill="black"/>
<path d="M95.3171 75.7166H87.2865C86.6663 75.7166 86.0932 75.3866 85.7831 74.8483L81.7691 67.8944C81.459 67.3561 81.459 66.6962 81.7691 66.1578L85.7831 59.204C86.0932 58.6656 86.6663 58.3357 87.2865 58.3357H95.3171C95.9373 58.3357 96.5103 58.6656 96.8204 59.204L100.837 66.1578C101.147 66.6962 101.147 67.3586 100.837 67.8944L96.8204 74.8483C96.5103 75.3866 95.9373 75.7166 95.3171 75.7166ZM88.2888 72.2434H94.3148L97.329 67.0261L94.3148 61.8089H88.2888L85.277 67.0261L88.2888 72.2434Z" fill="black"/>
</svg>
