<svg width="118" height="120" viewBox="0 0 118 120" fill="none" xmlns="http://www.w3.org/2000/svg">
<path d="M58.9856 58.4462C57.3006 58.4462 55.6701 58.1122 54.1336 57.4541C49.5835 55.5068 46.6416 51.0508 46.6416 46.0998V28.0108C46.6416 27.0532 47.4161 26.2788 48.3736 26.2788H69.5975C70.5551 26.2788 71.3295 27.0532 71.3295 28.0108V46.0998C71.3295 51.0508 68.3876 55.5068 63.8351 57.4565C62.301 58.1122 60.6705 58.4462 58.9856 58.4462ZM50.1056 29.7427V46.0998C50.1056 49.6627 52.221 52.8693 55.4969 54.2697C56.5979 54.7423 57.7732 54.9823 58.9856 54.9823C60.1979 54.9823 61.3707 54.7423 62.4717 54.2722C65.7476 52.8693 67.8656 49.6627 67.8656 46.0998V29.7427H50.1056Z" fill="#BB0722"/>
<path d="M48.3736 43.9571C44.2491 43.9571 40.8915 40.6021 40.8915 36.4775C40.8915 32.353 44.2491 28.9955 48.3736 28.9955C49.3311 28.9955 50.1056 29.7699 50.1056 30.7274V42.2252C50.1056 43.1827 49.3311 43.9571 48.3736 43.9571ZM46.6416 32.8528C45.2907 33.501 44.3555 34.8817 44.3555 36.4775C44.3555 38.0734 45.2907 39.454 46.6416 40.0998V32.8528Z" fill="#BB0722"/>
<path d="M69.5975 43.9571C68.64 43.9571 67.8656 43.1827 67.8656 42.2252V30.7274C67.8656 29.7699 68.64 28.9955 69.5975 28.9955C73.7221 28.9955 77.0796 32.353 77.0796 36.4775C77.0796 40.6021 73.7221 43.9571 69.5975 43.9571ZM71.3295 32.8528V40.1023C72.6804 39.454 73.6157 38.0734 73.6157 36.48C73.6157 34.8817 72.6804 33.501 71.3295 32.8528Z" fill="#BB0722"/>
<path d="M55.4227 22.3126H44.4792C43.9843 22.3126 43.5142 22.1023 43.1851 21.7336C42.8561 21.365 42.7002 20.8726 42.7571 20.3827C43.534 13.685 48.4553 8.08084 54.9996 6.43795C55.5167 6.30929 56.066 6.42311 56.4866 6.75218C56.9072 7.08125 57.1522 7.58352 57.1522 8.11795V20.5831C57.1546 21.5382 56.3777 22.3126 55.4227 22.3126ZM46.5773 18.8487H53.6907V10.5476C50.2268 12.1188 47.5967 15.1794 46.5773 18.8487Z" fill="#BB0722"/>
<path d="M73.492 22.3126H62.5484C61.5909 22.3126 60.8165 21.5382 60.8165 20.5807V8.11551C60.8165 7.58108 61.0614 7.07881 61.4821 6.74974C61.9027 6.42067 62.452 6.30685 62.9691 6.43551C69.5134 8.0784 74.4346 13.6825 75.2115 20.3803C75.2684 20.8702 75.1126 21.3625 74.7835 21.7312C74.4569 22.1023 73.9868 22.3126 73.492 22.3126ZM64.2804 18.8487H71.3938C70.3744 15.1794 67.7443 12.1163 64.2804 10.5477V18.8487Z" fill="#BB0722"/>
<path d="M62.5484 22.3126H55.4227C54.4652 22.3126 53.6907 21.5381 53.6907 20.5806V5.29485C53.6907 2.37526 56.066 0 58.9856 0C60.4008 0 61.7295 0.551753 62.7291 1.55134C63.7287 2.55093 64.2804 3.88206 64.2804 5.29732V20.5831C64.2804 21.5381 63.506 22.3126 62.5484 22.3126ZM57.1546 18.8487H60.8165V5.29485C60.8165 4.80495 60.626 4.34474 60.2796 3.99835C59.9332 3.65196 59.473 3.46144 58.9831 3.46144C57.9736 3.46144 57.1522 4.28289 57.1522 5.29237V18.8487H57.1546Z" fill="#BB0722"/>
<path d="M68.3183 22.3126C67.3608 22.3126 66.5864 21.5382 66.5864 20.5807V8.1155C66.5864 7.15798 67.3608 6.38354 68.3183 6.38354C69.2759 6.38354 70.0503 7.15798 70.0503 8.1155V20.5807C70.0503 21.5382 69.2759 22.3126 68.3183 22.3126Z" fill="black"/>
<path d="M49.6528 22.3126C48.6953 22.3126 47.9208 21.5382 47.9208 20.5807V8.1155C47.9208 7.15798 48.6953 6.38354 49.6528 6.38354C50.6103 6.38354 51.3847 7.15798 51.3847 8.1155V20.5807C51.3847 21.5382 50.6078 22.3126 49.6528 22.3126Z" fill="black"/>
<path d="M58.9856 71.515C55.732 71.515 53.0845 68.8676 53.0845 65.614V61.5736C53.0845 60.616 53.859 59.8416 54.8165 59.8416C55.774 59.8416 56.5484 60.616 56.5484 61.5736V65.614C56.5484 66.9575 57.6421 68.0511 58.9856 68.0511C60.3291 68.0511 61.4227 66.9575 61.4227 65.614V58.2061C60.626 58.367 59.812 58.4461 58.9856 58.4461C57.3006 58.4461 55.6676 58.1121 54.1336 57.454C53.2553 57.0779 52.847 56.0585 53.2231 55.1802C53.5992 54.3018 54.6186 53.8936 55.4969 54.2696C56.5979 54.7422 57.7707 54.9797 58.9831 54.9797C60.1955 54.9797 61.3682 54.7397 62.4693 54.2696C63.0037 54.0395 63.6198 54.094 64.1047 54.4156C64.5897 54.7348 64.8841 55.2791 64.8841 55.8606V65.6115C64.8866 68.8676 62.2392 71.515 58.9856 71.515Z" fill="#BB0722"/>
<path d="M75.6 29.7426H42.3711C39.3674 29.7426 36.9254 27.2981 36.9254 24.2968C36.9254 22.842 37.492 21.4738 38.5188 20.4469C39.548 19.4177 40.9163 18.8511 42.3711 18.8511H75.5975C78.6012 18.8511 81.0433 21.2956 81.0433 24.2968C81.0433 25.7517 80.4767 27.1199 79.4499 28.1467C78.4231 29.176 77.0548 29.7426 75.6 29.7426ZM42.3711 22.3125C41.8416 22.3125 41.3418 22.5179 40.9658 22.894C40.5922 23.2676 40.3868 23.7649 40.3868 24.2968C40.3868 25.3905 41.2775 26.2787 42.3687 26.2787H75.5951C76.127 26.2787 76.6243 26.0733 77.0004 25.6973C77.374 25.3237 77.5794 24.8263 77.5794 24.2944C77.5794 23.2008 76.6887 22.3125 75.5975 22.3125H42.3711Z" fill="black"/>
<path d="M58.9583 108.643C54.3117 108.643 50.5311 104.863 50.5311 100.216V88.466C50.5311 87.5084 51.3056 86.734 52.2631 86.734H65.6561C66.6136 86.734 67.388 87.5084 67.388 88.466V100.216C67.388 104.86 63.6074 108.643 58.9583 108.643ZM53.995 90.1955V100.214C53.995 102.95 56.2218 105.177 58.9583 105.177C61.6948 105.177 63.9216 102.95 63.9216 100.214V90.1955H53.995Z" fill="black"/>
<path d="M71.5942 120H46.3769C45.4194 120 44.6449 119.226 44.6449 118.268V79.3262C44.6449 78.3687 45.4194 77.5942 46.3769 77.5942H71.5942C72.5517 77.5942 73.3262 78.3687 73.3262 79.3262V118.268C73.3262 119.226 72.5517 120 71.5942 120ZM48.1089 116.536H69.8623V81.0582H48.1089V116.536Z" fill="#BB0722"/>
<path d="M24.7225 106.684C23.0252 106.684 21.4614 105.988 20.3208 104.724L5.49526 88.3125C5.1835 87.9686 5.02515 87.5134 5.05237 87.0482C5.07959 86.5855 5.29237 86.1501 5.64371 85.8457L10.7109 81.4218C11.374 80.8428 12.3662 80.8552 13.0169 81.4466L23.2998 90.8263L37.1332 64.9732C37.5068 64.2729 38.3109 63.9167 39.0804 64.1096C39.8499 64.3026 40.3918 64.9954 40.3918 65.7896V83.6214C40.3918 83.9059 40.3225 84.188 40.1864 84.4379L29.9629 103.546C28.9262 105.481 26.9171 106.684 24.7225 106.684ZM9.24618 87.2981L22.8915 102.403C23.374 102.938 24.0074 103.22 24.7249 103.22C25.6404 103.22 26.4792 102.717 26.9122 101.911L36.9278 83.1884V72.7002L25.3039 94.4239C25.0515 94.894 24.5963 95.2231 24.0693 95.3146C23.5423 95.4061 23.0029 95.2478 22.6095 94.8866L11.8219 85.049L9.24618 87.2981Z" fill="#BB0722"/>
<path d="M71.5942 81.0582H46.3769C45.4194 81.0582 44.6449 80.2837 44.6449 79.3262V65.614C44.6449 64.6565 45.4194 63.8821 46.3769 63.8821H54.8165C55.774 63.8821 56.5484 64.6565 56.5484 65.614C56.5484 66.9575 57.6421 68.0512 58.9856 68.0512C60.3291 68.0512 61.4227 66.9575 61.4227 65.614C61.4227 64.6565 62.1971 63.8821 63.1546 63.8821H71.5942C72.5517 63.8821 73.3262 64.6565 73.3262 65.614V79.3262C73.3262 80.2837 72.5517 81.0582 71.5942 81.0582ZM48.1089 77.5942H69.8623V67.346H64.6268C63.8845 69.7584 61.6355 71.5151 58.9856 71.5151C56.3357 71.5151 54.0866 69.7584 53.3443 67.346H48.1089V77.5942Z" fill="#BB0722"/>
<path d="M8.2565 87.595C8.19711 87.595 8.13773 87.5926 8.07835 87.5851C7.60083 87.5357 7.16289 87.2907 6.8734 86.9047L0.348866 78.2623C0.121237 77.9629 0 77.5942 0 77.2181V69.7955C0 69.1126 0.400825 68.494 1.02433 68.2144C1.64783 67.9348 2.37773 68.0487 2.88495 68.5039L6.81402 72.0173L8.25155 71.3715C8.74392 71.1513 9.31299 71.1711 9.78557 71.4285C10.2606 71.6858 10.5872 72.1509 10.6713 72.6829L12.3612 83.4977C12.4528 84.0841 12.2375 84.6779 11.7897 85.0689L9.39464 87.1596C9.07794 87.4441 8.67464 87.595 8.2565 87.595ZM3.46392 76.6392L8.51876 83.3344L8.7934 83.0944L7.60082 75.4639L7.20742 75.6396C6.58392 75.9192 5.85402 75.8054 5.34433 75.3501L3.46392 73.6676V76.6392Z" fill="#BB0722"/>
<path d="M46.3769 120H38.6573C37.6998 120 36.9254 119.226 36.9254 118.268V110.353C36.9254 109.395 37.6998 108.621 38.6573 108.621C39.6148 108.621 40.3893 109.395 40.3893 110.353V116.536H44.6449V67.346H40.3893V99.8351C40.3893 100.793 39.6148 101.567 38.6573 101.567C37.6998 101.567 36.9254 100.793 36.9254 99.8351V65.7922C36.9254 65.5052 36.9971 65.2206 37.1332 64.9683L37.2297 64.7901C37.5315 64.2309 38.1179 63.8821 38.7538 63.8821H46.3769C47.3344 63.8821 48.1089 64.6565 48.1089 65.614V118.268C48.1089 119.226 47.3344 120 46.3769 120Z" fill="black"/>
<path d="M38.6573 106.852C38.2021 106.852 37.7542 106.666 37.4326 106.345C37.1109 106.023 36.9254 105.578 36.9254 105.12C36.9254 105.009 36.9377 104.895 36.96 104.784C36.9823 104.672 37.0144 104.563 37.059 104.459C37.101 104.353 37.1555 104.254 37.2173 104.16C37.2816 104.064 37.3534 103.974 37.4326 103.895C37.7542 103.574 38.2021 103.388 38.6573 103.388C39.1126 103.388 39.5604 103.574 39.8821 103.895C40.2037 104.219 40.3893 104.665 40.3893 105.12C40.3893 105.575 40.2037 106.023 39.8821 106.345C39.5604 106.666 39.1126 106.852 38.6573 106.852Z" fill="black"/>
<path d="M93.2487 106.684C91.054 106.684 89.0449 105.481 88.0082 103.549L77.7872 84.4404C77.6536 84.188 77.5819 83.9084 77.5819 83.6239V65.7921C77.5819 64.8346 78.3563 64.0602 79.3138 64.0602C80.2713 64.0602 81.0458 64.8346 81.0458 65.7921V83.1884L91.0614 101.911C91.4944 102.717 92.3307 103.217 93.2487 103.217C93.9637 103.217 94.5971 102.935 95.0821 102.401L108.727 87.2956L106.152 85.0466L95.3641 94.8866C94.9682 95.2478 94.4289 95.4037 93.9043 95.3146C93.3773 95.2231 92.9221 94.8965 92.6697 94.4239L83.2652 76.847C82.8148 76.0033 83.1315 74.9542 83.9753 74.5039C84.819 74.0536 85.868 74.3703 86.3183 75.214L94.6713 90.8288L104.954 81.449C105.605 80.8552 106.597 80.8453 107.26 81.4243L112.327 85.8482C112.676 86.1525 112.889 86.588 112.916 87.0507C112.944 87.5134 112.783 87.9686 112.473 88.315L97.6478 104.727C96.5097 105.988 94.946 106.684 93.2487 106.684Z" fill="#BB0722"/>
<path d="M109.715 87.5951C109.299 87.5951 108.893 87.4441 108.576 87.167L106.181 85.0763C105.734 84.6854 105.518 84.0916 105.61 83.5052L107.3 72.6903C107.384 72.1559 107.711 71.6932 108.186 71.4359C108.661 71.1786 109.227 71.1563 109.72 71.379L111.157 72.0248L115.086 68.5114C115.596 68.0561 116.323 67.9423 116.947 68.2219C117.57 68.5015 117.971 69.12 117.971 69.8029V77.2256C117.971 77.6017 117.847 77.9679 117.622 78.2697L111.098 86.9122C110.808 87.2957 110.373 87.5406 109.893 87.5926C109.833 87.5901 109.774 87.5951 109.715 87.5951ZM109.178 83.0945L109.452 83.3345L114.507 76.6392V73.6701L112.627 75.3526C112.117 75.8079 111.387 75.9217 110.764 75.6421L110.37 75.4664L109.178 83.0945Z" fill="#BB0722"/>
<path d="M79.3138 120H71.5942C70.6367 120 69.8623 119.226 69.8623 118.268V65.614C69.8623 64.6565 70.6367 63.8821 71.5942 63.8821H79.2173C79.8532 63.8821 80.4371 64.2309 80.739 64.7901L80.8355 64.9683C80.9715 65.2206 81.0458 65.5052 81.0458 65.7922V118.268C81.0458 119.226 80.2713 120 79.3138 120ZM73.3262 116.536H77.5819V67.346H73.3262V116.536Z" fill="black"/>
<path d="M54.9649 37.7221C54.8511 37.7221 54.7373 37.7097 54.626 37.6875C54.5146 37.6652 54.4058 37.633 54.3019 37.5885C54.1979 37.5464 54.0965 37.492 54.0025 37.4301C53.9085 37.3658 53.8194 37.2941 53.7402 37.2149C53.4161 36.8908 53.233 36.4454 53.233 35.9901C53.233 35.8763 53.2429 35.7625 53.2652 35.6512C53.2874 35.5398 53.3221 35.431 53.3641 35.327C53.4087 35.2231 53.4606 35.1217 53.5249 35.0277C53.5868 34.9336 53.6586 34.8446 53.7402 34.7654C54.0619 34.4413 54.5072 34.2582 54.9649 34.2582C55.4202 34.2582 55.8656 34.4413 56.1897 34.7654C56.2689 34.8446 56.3406 34.9336 56.4049 35.0277C56.4668 35.1217 56.5188 35.2231 56.5633 35.327C56.6054 35.431 56.64 35.5398 56.6623 35.6512C56.6845 35.7625 56.6969 35.8763 56.6969 35.9901C56.6969 36.4454 56.5113 36.8908 56.1897 37.2149C55.8656 37.5365 55.4202 37.7221 54.9649 37.7221Z" fill="#BB0722"/>
<path d="M63.0062 37.722C62.8948 37.722 62.781 37.7096 62.6697 37.6874C62.5584 37.6651 62.4495 37.6329 62.3456 37.5884C62.2392 37.5463 62.1402 37.4919 62.0462 37.43C61.9497 37.3657 61.8631 37.294 61.7814 37.2148C61.4598 36.8907 61.2742 36.4453 61.2742 35.99C61.2742 35.8762 61.2866 35.7624 61.3089 35.6511C61.3311 35.5397 61.3658 35.4309 61.4078 35.3269C61.4524 35.223 61.5043 35.1216 61.5662 35.0276C61.6305 34.9335 61.7023 34.8445 61.7814 34.7653C61.8631 34.6861 61.9497 34.6119 62.0462 34.55C62.1402 34.4882 62.2392 34.4337 62.3456 34.3892C62.4495 34.3471 62.5584 34.3125 62.6697 34.2902C62.8924 34.2457 63.1225 34.2457 63.3451 34.2902C63.4565 34.3125 63.5654 34.3471 63.6693 34.3892C63.7732 34.4337 63.8746 34.4882 63.9687 34.55C64.0627 34.6119 64.1518 34.6861 64.2309 34.7653C64.5551 35.0869 64.7406 35.5348 64.7406 35.99C64.7406 36.4453 64.5551 36.8907 64.2309 37.2148C64.1518 37.294 64.0627 37.3657 63.9687 37.43C63.8746 37.4919 63.7732 37.5463 63.6693 37.5884C63.5654 37.6329 63.4565 37.6651 63.3451 37.6874C63.2338 37.7096 63.12 37.722 63.0062 37.722Z" fill="#BB0722"/>
</svg>
