<svg width="122" height="100" viewBox="0 0 122 100" fill="none" xmlns="http://www.w3.org/2000/svg">
<path d="M26.9485 87.4023C25.9793 87.4023 25.1953 86.6184 25.1953 85.6492C25.1953 79.6684 20.3316 74.8046 14.3508 74.8046C8.37007 74.8046 3.50631 79.6684 3.50631 85.6492C3.50631 86.6184 2.7224 87.4023 1.75316 87.4023C0.783911 87.4023 0 86.6184 0 85.6492V14.3508C0 6.43659 6.43659 0 14.3508 0C22.2651 0 28.7017 6.43659 28.7017 14.3508V85.6492C28.7017 86.6184 27.9177 87.4023 26.9485 87.4023ZM14.3508 71.2983C18.6761 71.2983 22.5631 73.2218 25.1953 76.2598V14.3508C25.1953 8.37007 20.3316 3.50631 14.3508 3.50631C8.37007 3.50631 3.50631 8.37007 3.50631 14.3508V76.2598C6.13855 73.2218 10.0255 71.2983 14.3508 71.2983Z" fill="#BB0722"/>
<path d="M119.715 100C118.746 100 117.962 99.2161 117.962 98.2468V16.104H28.7017V85.6491C28.7017 86.6184 27.9177 87.4023 26.9485 87.4023C25.9793 87.4023 25.1953 86.6184 25.1953 85.6491C25.1953 79.6684 20.3316 74.8046 14.3508 74.8046C8.37007 74.8046 3.50631 79.6684 3.50631 85.6491C3.50631 91.6299 8.37007 96.4937 14.3508 96.4937H109.69C110.659 96.4937 111.443 97.2776 111.443 98.2468C111.443 99.2161 110.659 100 109.69 100H14.3508C6.43909 100 0 93.5634 0 85.6491C0 77.7349 6.43909 71.2983 14.3508 71.2983C18.6761 71.2983 22.5631 73.2218 25.1953 76.2597V14.3508C25.1953 13.3816 25.9793 12.5977 26.9485 12.5977H119.715C120.685 12.5977 121.469 13.3816 121.469 14.3508V98.2468C121.469 99.2161 120.685 100 119.715 100Z" fill="#BB0722"/>
<path d="M53.5464 44.9108H36.408C35.4388 44.9108 34.6549 44.1269 34.6549 43.1576V26.0193C34.6549 25.05 35.4388 24.2661 36.408 24.2661H53.5464C54.5156 24.2661 55.2995 25.05 55.2995 26.0193V43.1576C55.2995 44.1269 54.5131 44.9108 53.5464 44.9108ZM38.1612 41.4045H51.7932V27.7724H38.1612V41.4045Z" fill="#BB0722"/>
<path d="M68.3806 87.5H55.3997C54.4305 87.5 53.6466 86.7161 53.6466 85.7468C53.6466 84.7776 54.4305 83.9937 55.3997 83.9937H66.6274V55.5274H38.1612V83.9937H40.5004C41.4696 83.9937 42.2536 84.7776 42.2536 85.7468C42.2536 86.7161 41.4696 87.5 40.5004 87.5H36.408C35.4388 87.5 34.6549 86.7161 34.6549 85.7468V53.7743C34.6549 52.805 35.4388 52.0211 36.408 52.0211H68.3806C69.3498 52.0211 70.1337 52.805 70.1337 53.7743V85.7468C70.1337 86.7136 69.3498 87.5 68.3806 87.5Z" fill="black"/>
<path d="M47.1198 87.5001C46.6565 87.5001 46.2057 87.3122 45.8801 86.9867C45.7999 86.904 45.7248 86.8163 45.6622 86.7187C45.5996 86.6235 45.5445 86.5233 45.4994 86.4156C45.4568 86.3104 45.4243 86.2002 45.4017 86.0875C45.3767 85.9748 45.3667 85.8596 45.3667 85.7469C45.3667 85.6317 45.3767 85.5165 45.4017 85.4038C45.4243 85.2911 45.4568 85.1809 45.4994 85.0757C45.5445 84.9705 45.5996 84.8678 45.6622 84.7727C45.7248 84.6775 45.7999 84.5873 45.8801 84.5072C46.2057 84.1791 46.6565 83.9938 47.1198 83.9938C47.5807 83.9938 48.0315 84.1791 48.3596 84.5072C48.4397 84.5873 48.5123 84.6775 48.5774 84.7727C48.6401 84.8678 48.6952 84.9705 48.7377 85.0757C48.7828 85.1809 48.8154 85.2911 48.8379 85.4038C48.8605 85.5165 48.873 85.6317 48.873 85.7469C48.873 85.8596 48.8605 85.9748 48.8379 86.0875C48.8154 86.2002 48.7828 86.3104 48.7377 86.4156C48.6952 86.5233 48.6401 86.6235 48.5774 86.7187C48.5123 86.8163 48.4397 86.904 48.3596 86.9867C48.0315 87.3122 47.5807 87.5001 47.1198 87.5001Z" fill="black"/>
<path d="M105.981 44.9108H60.7343C59.7651 44.9108 58.9812 44.1269 58.9812 43.1576V26.0193C58.9812 25.05 59.7651 24.2661 60.7343 24.2661H82.8742C83.8434 24.2661 84.6273 25.05 84.6273 26.0193C84.6273 26.9885 83.8434 27.7724 82.8742 27.7724H62.4875V41.4045H104.228V27.7724H96.133C95.1638 27.7724 94.3799 26.9885 94.3799 26.0193C94.3799 25.05 95.1638 24.2661 96.133 24.2661H105.981C106.95 24.2661 107.734 25.05 107.734 26.0193V43.1576C107.734 44.1269 106.95 44.9108 105.981 44.9108Z" fill="black"/>
<path d="M89.1004 27.775C88.9852 27.775 88.87 27.7625 88.7573 27.7399C88.6446 27.7174 88.5344 27.6848 88.4292 27.6398C88.324 27.5972 88.2213 27.5421 88.1261 27.4795C88.031 27.4144 87.9408 27.3417 87.8607 27.2616C87.778 27.1789 87.7054 27.0913 87.6428 26.9936C87.5776 26.8984 87.5251 26.7982 87.48 26.6931C87.4374 26.5854 87.4023 26.4752 87.3798 26.365C87.3573 26.2498 87.3447 26.1346 87.3447 26.0218C87.3447 25.9066 87.3573 25.7914 87.3798 25.6787C87.4023 25.566 87.4374 25.4558 87.48 25.3506C87.5251 25.2455 87.5776 25.1428 87.6428 25.0476C87.7054 24.9524 87.778 24.8623 87.8607 24.7821C87.9408 24.702 88.031 24.6268 88.1261 24.5642C88.2213 24.5016 88.324 24.4465 88.4292 24.4014C88.5344 24.3589 88.6446 24.3263 88.7573 24.3038C88.9827 24.2562 89.2156 24.2562 89.441 24.3038C89.5537 24.3263 89.6639 24.3589 89.7691 24.4014C89.8743 24.4465 89.977 24.5016 90.0721 24.5642C90.1673 24.6268 90.2575 24.702 90.3376 24.7821C90.4203 24.8623 90.4929 24.9524 90.558 25.0476C90.6206 25.1428 90.6732 25.2455 90.7183 25.3506C90.7609 25.4558 90.7959 25.566 90.8185 25.6787C90.841 25.7914 90.851 25.9066 90.851 26.0218C90.851 26.1346 90.841 26.2498 90.8185 26.365C90.7959 26.4752 90.7609 26.5854 90.7183 26.6931C90.6732 26.7982 90.6206 26.8984 90.558 26.9936C90.4929 27.0913 90.4203 27.1789 90.3376 27.2616C90.2575 27.3417 90.1673 27.4144 90.0721 27.4795C89.977 27.5421 89.8743 27.5972 89.7691 27.6398C89.6639 27.6848 89.5537 27.7174 89.441 27.7399C89.3283 27.7625 89.2131 27.775 89.1004 27.775Z" fill="black"/>
<path d="M88.8424 88.329H79.2502C78.2809 88.329 77.497 87.5451 77.497 86.5758V53.7743C77.497 52.805 78.2809 52.0211 79.2502 52.0211H88.8424C89.8117 52.0211 90.5956 52.805 90.5956 53.7743V86.5783C90.5956 87.5451 89.8117 88.329 88.8424 88.329ZM81.0058 84.8227H87.0918V55.5274H81.0058V84.8227Z" fill="#BB0722"/>
<path d="M105.981 88.329H96.3885C95.4193 88.329 94.6353 87.5451 94.6353 86.5758V53.7743C94.6353 52.805 95.4193 52.0211 96.3885 52.0211H105.981C106.95 52.0211 107.734 52.805 107.734 53.7743V86.5783C107.734 87.5451 106.95 88.329 105.981 88.329ZM98.1417 84.8227H104.228V55.5274H98.1417V84.8227Z" fill="#BB0722"/>
<path d="M13.602 64.744C12.6327 64.744 11.8488 63.9601 11.8488 62.9909V16.2693C11.8488 15.3 12.6327 14.5161 13.602 14.5161C14.5712 14.5161 15.3551 15.3 15.3551 16.2693V62.9909C15.3551 63.9601 14.5687 64.744 13.602 64.744Z" fill="#BB0722"/>
<path d="M13.602 12.4924C13.1386 12.4924 12.6878 12.3046 12.3622 11.979C12.0367 11.6509 11.8488 11.2001 11.8488 10.7393C11.8488 10.276 12.0367 9.82515 12.3622 9.49956C12.768 9.09133 13.3741 8.90599 13.9451 9.0187C14.0553 9.04124 14.1655 9.0763 14.2732 9.11888C14.3784 9.16396 14.4785 9.21655 14.5737 9.28167C14.6714 9.34428 14.7616 9.41691 14.8417 9.49956C15.1673 9.82515 15.3551 10.276 15.3551 10.7393C15.3551 11.2001 15.1673 11.6509 14.8417 11.979C14.7616 12.0592 14.6714 12.1318 14.5737 12.1969C14.4785 12.2595 14.3784 12.3146 14.2732 12.3572C14.1655 12.4023 14.0553 12.4348 13.9451 12.4574C13.8324 12.4799 13.7172 12.4924 13.602 12.4924Z" fill="#BB0722"/>
</svg>
